<?xml version="1.0" encoding="utf-8"?>
<!-- Generator: Adobe Illustrator 16.0.3, SVG Export Plug-In . SVG Version: 6.00 Build 0)  -->
<!DOCTYPE svg PUBLIC "-//W3C//DTD SVG 1.1//EN" "http://www.w3.org/Graphics/SVG/1.1/DTD/svg11.dtd">
<svg version="1.1" id="Capa_1" xmlns="http://www.w3.org/2000/svg" xmlns:xlink="http://www.w3.org/1999/xlink" x="0px" y="0px"
	 width="595.279px" height="841.89px" viewBox="0 0 595.279 841.89" enable-background="new 0 0 595.279 841.89"
	 xml:space="preserve">
<path fill="none" stroke="#000000" stroke-width="3" stroke-miterlimit="10" d="M118.14,552.378
	C106.64,535.445,4.296,465.404,6.506,392.625c1.774-57.817,6.335-102.579,26.387-142.634
	c40.441-80.874,110.082-128.707,110.082-128.707c151.975-97.699,316.313-18.626,316.313-18.626
	c133.351,69.807,119.365,141.124,119.365,141.124c0,51.181-60.408,151.976-60.408,151.976
	c-58.957,85.248-18.598,156.621-18.598,156.621c75.986,133.35,4.343,180.924,2.063,183.105c-2.278,2.18-91.981,60.322-91.981,60.322
	c-183.021,85.248-245.052-93.074-245.052-93.074S129.64,569.312,118.14,552.378z"/>
</svg>
