<?xml version="1.0" encoding="utf-8"?>
<!-- Generator: Adobe Illustrator 16.0.3, SVG Export Plug-In . SVG Version: 6.00 Build 0)  -->
<!DOCTYPE svg PUBLIC "-//W3C//DTD SVG 1.1//EN" "http://www.w3.org/Graphics/SVG/1.1/DTD/svg11.dtd">
<svg version="1.1" id="Capa_1" xmlns="http://www.w3.org/2000/svg" xmlns:xlink="http://www.w3.org/1999/xlink" x="0px" y="0px"
	 width="595.28px" height="841.89px" viewBox="0 0 595.28 841.89" enable-background="new 0 0 595.28 841.89" xml:space="preserve">
<path fill="#FFFFFF" stroke="#000000" stroke-miterlimit="10" d="M209.052,427.956c0,0-48.959-37.384-48-68.667
	c0.763-24.869,2.717-44.105,11.333-61.333c17.388-34.769,47.333-55.333,47.333-55.333c65.333-42,136-8,136-8
	c57.334,30,51.333,60.667,51.333,60.667c0,22-26,65.333-26,65.333c-25.333,36.666-8,67.333-8,67.333
	c32.667,57.333,12.667,65.333,12.667,65.333c-20.666,28-51.334,39.334-51.334,39.334c-78.667,36.666-105.333-40-105.333-40
	S221.052,481.955,209.052,427.956z"/>
</svg>
